<svg width="123" height="24" viewBox="0 0 123 24" fill="none" xmlns="http://www.w3.org/2000/svg">
<rect width="123" height="24" fill="#1E1E1E"/>
<g clip-path="url(#clip0_0_1)">
<rect width="1920" height="6316" transform="translate(-658 -744)" fill="white"/>
<path fill-rule="evenodd" clip-rule="evenodd" d="M-652.001 -741H1268V-49.9473L1268 269H-652.001V-741Z" fill="#F6F8FB"/>
<g clip-path="url(#clip1_0_1)">
<path d="M14.268 4.51039L7.134 9.0203L14.268 13.5302L7.134 18.0401L0 13.5058L7.134 8.99592L0 4.51039L7.134 0.000488281L14.268 4.51039ZM7.0971 19.4906L14.2311 14.9807L21.3651 19.4906L14.2311 24.0005L7.0971 19.4906ZM14.268 13.5058L21.402 8.99592L14.268 4.51039L21.3651 0.000488281L28.4991 4.51039L21.3651 9.0203L28.4991 13.5302L21.3651 18.0401L14.268 13.5058Z" fill="#B7BEC9"/>
<path d="M34.0956 4.51043H39.8642C43.5419 4.51043 46.58 6.61912 46.58 11.4337V12.4454C46.58 17.2966 43.7387 19.4784 39.9749 19.4784H34.0956V4.51043ZM37.3181 7.22856V16.7481H39.7904C41.8814 16.7481 43.2836 15.3951 43.2836 12.3845V11.5922C43.2836 8.58153 41.8076 7.22856 39.6797 7.22856H37.3181ZM48.2897 7.37483H50.8727L51.2909 10.1905C51.7829 8.27681 53.0375 7.25294 55.313 7.25294H56.1125V10.483H54.7841C52.1642 10.483 51.5246 11.385 51.5246 13.9447V19.515H48.3389V7.37483H48.2897ZM56.7521 13.6887V13.3474C56.7521 9.28849 59.372 7.07011 62.939 7.07011C66.5798 7.07011 69.1259 9.28849 69.1259 13.3474V13.6887C69.1259 17.6745 66.6536 19.8197 62.939 19.8197C58.9907 19.7832 56.7521 17.6867 56.7521 13.6887ZM65.8664 13.6521V13.3474C65.8664 11.0925 64.7225 9.73948 62.9021 9.73948C61.1186 9.73948 59.9378 10.9828 59.9378 13.3474V13.6521C59.9378 15.8339 61.0817 17.0772 62.9021 17.0772C64.7225 17.0407 65.8664 15.8339 65.8664 13.6521ZM70.7987 7.37483H73.4555L73.763 9.66635C74.4026 8.13055 75.7679 7.07011 77.7851 7.07011C80.897 7.07011 82.9511 9.28849 82.9511 13.3962V13.7375C82.9511 17.7232 80.6756 19.8319 77.7851 19.8319C75.854 19.8319 74.5256 18.9665 73.8737 17.577V23.708H70.7618L70.7987 7.37483ZM79.7162 13.6521V13.384C79.7162 10.9706 78.4616 9.77605 76.7888 9.77605C75.0053 9.77605 73.8245 11.129 73.8245 13.384V13.6156C73.8245 15.7608 74.9684 17.1138 76.7519 17.1138C78.5846 17.0772 79.7162 15.9193 79.7162 13.6521ZM87.662 17.2722L87.3914 19.4906H84.6608V3.31592H87.7727V9.52008C88.4615 7.93552 89.8268 7.07011 91.7579 7.07011C94.6853 7.10668 96.8501 9.10566 96.8501 13.128V13.5059C96.8501 17.5282 94.796 19.8319 91.6841 19.8319C89.63 19.7832 88.3016 18.8446 87.662 17.2722ZM93.5783 13.5059V13.2011C93.5783 10.9828 92.3606 9.73948 90.6509 9.73948C88.9043 9.73948 87.6866 11.129 87.6866 13.2377V13.5059C87.6866 15.7608 88.8674 17.0772 90.614 17.0772C92.4836 17.0772 93.5783 15.9193 93.5783 13.5059ZM98.2154 13.6887V13.3474C98.2154 9.28849 100.835 7.07011 104.402 7.07011C108.043 7.07011 110.589 9.28849 110.589 13.3474V13.6887C110.589 17.6745 108.08 19.8197 104.402 19.8197C100.454 19.7832 98.2154 17.6867 98.2154 13.6887ZM107.354 13.6521V13.3474C107.354 11.0925 106.21 9.73948 104.39 9.73948C102.607 9.73948 101.426 10.9828 101.426 13.3474V13.6521C101.426 15.8339 102.57 17.0772 104.39 17.0772C106.223 17.0407 107.354 15.8339 107.354 13.6521ZM114.759 13.2011L110.466 7.37483H114.144L116.616 11.0193L119.125 7.37483H122.766L118.412 13.1646L123 19.4906H119.396L116.592 15.4683L113.861 19.4906H110.097L114.759 13.2011Z" fill="#B7BEC9"/>
</g>
</g>
<defs>
<clipPath id="clip0_0_1">
<rect width="1920" height="6316" fill="white" transform="translate(-658 -744)"/>
</clipPath>
<clipPath id="clip1_0_1">
<rect width="123" height="24" fill="white" transform="translate(0 0.000488281)"/>
</clipPath>
</defs>
</svg>
