<svg width="195" height="37" viewBox="0 0 195 37" fill="none" xmlns="http://www.w3.org/2000/svg">
<path opacity="0.8" d="M41.6445 22.9868H44.4863C44.5514 23.5597 44.8542 24.0252 45.3945 24.3833C45.9414 24.7349 46.6087 24.9106 47.3965 24.9106C48.1777 24.9106 48.8125 24.7446 49.3008 24.4126C49.7956 24.0741 50.043 23.6444 50.043 23.1235C50.043 22.6678 49.8607 22.3 49.4961 22.02C49.1315 21.7401 48.5228 21.5057 47.6699 21.3169L45.834 20.9165C43.2493 20.3631 41.957 19.0513 41.957 16.981C41.957 15.6919 42.4583 14.6502 43.4609 13.856C44.4701 13.0617 45.7656 12.6646 47.3477 12.6646C48.9753 12.6646 50.2741 13.0519 51.2441 13.8267C52.2142 14.5949 52.7122 15.6203 52.7383 16.9028H49.9746C49.929 16.3104 49.6654 15.8449 49.1836 15.5063C48.7083 15.1613 48.0996 14.9888 47.3574 14.9888C46.6283 14.9888 46.0391 15.1483 45.5898 15.4673C45.1471 15.7863 44.9258 16.2062 44.9258 16.7271C44.9258 17.1567 45.1048 17.505 45.4629 17.772C45.8275 18.0389 46.4167 18.2668 47.2305 18.4556L48.9395 18.8169C50.3522 19.1164 51.3809 19.5851 52.0254 20.2231C52.6699 20.8547 52.9922 21.7075 52.9922 22.7817C52.9922 24.1489 52.4779 25.2362 51.4492 26.0435C50.4206 26.8442 49.0306 27.2446 47.2793 27.2446C45.5801 27.2446 44.2259 26.867 43.2168 26.1118C42.2142 25.3501 41.6901 24.3084 41.6445 22.9868ZM55.3262 14.1196H58.1777V16.5317H60.1113V18.6802H58.1777V23.6899C58.1777 24.4777 58.5879 24.8716 59.4082 24.8716C59.6751 24.8716 59.9062 24.8553 60.1016 24.8228V26.9224C59.7695 27.0005 59.3171 27.0396 58.7441 27.0396C57.5137 27.0396 56.6348 26.8182 56.1074 26.3755C55.5866 25.9328 55.3262 25.2004 55.3262 24.1782V18.6802H53.8516V16.5317H55.3262V14.1196ZM65.6191 25.106C66.2507 25.106 66.7845 24.9237 67.2207 24.5591C67.6634 24.188 67.8848 23.7225 67.8848 23.1626V22.4009L65.6777 22.5376C65.1439 22.5767 64.7305 22.7101 64.4375 22.938C64.151 23.1659 64.0078 23.4653 64.0078 23.8364C64.0078 24.2271 64.1543 24.5363 64.4473 24.7642C64.7402 24.992 65.1309 25.106 65.6191 25.106ZM64.6816 27.1665C63.6725 27.1665 62.8359 26.8703 62.1719 26.2778C61.5078 25.6854 61.1758 24.9237 61.1758 23.9927C61.1758 23.0422 61.5273 22.2967 62.2305 21.7563C62.9336 21.216 63.9395 20.9067 65.248 20.8286L67.8848 20.6724V19.979C67.8848 19.4972 67.7253 19.1196 67.4062 18.8462C67.0938 18.5728 66.6673 18.436 66.127 18.436C65.6061 18.436 65.1797 18.5532 64.8477 18.7876C64.5221 19.022 64.3236 19.3377 64.252 19.7349H61.6445C61.6966 18.7062 62.1361 17.8794 62.9629 17.2544C63.7897 16.6229 64.8867 16.3071 66.2539 16.3071C67.5951 16.3071 68.6693 16.6261 69.4766 17.2642C70.2839 17.9022 70.6875 18.7485 70.6875 19.8032V27.0005H67.9336V25.3989H67.875C67.5885 25.9458 67.1523 26.3787 66.5664 26.6978C65.9805 27.0103 65.3522 27.1665 64.6816 27.1665ZM72.5332 27.0005V16.5317H75.2871V18.4165H75.3457C75.528 17.7524 75.834 17.2446 76.2637 16.8931C76.6934 16.5415 77.2174 16.3657 77.8359 16.3657C78.1354 16.3657 78.4056 16.4015 78.6465 16.4731V18.9829C78.3796 18.8722 78.0345 18.8169 77.6113 18.8169C76.9082 18.8169 76.3613 19.022 75.9707 19.4321C75.5801 19.8423 75.3848 20.4152 75.3848 21.1509V27.0005H72.5332ZM80.5801 14.1196H83.4316V16.5317H85.3652V18.6802H83.4316V23.6899C83.4316 24.4777 83.8418 24.8716 84.6621 24.8716C84.929 24.8716 85.1602 24.8553 85.3555 24.8228V26.9224C85.0234 27.0005 84.571 27.0396 83.998 27.0396C82.7676 27.0396 81.8887 26.8182 81.3613 26.3755C80.8405 25.9328 80.5801 25.2004 80.5801 24.1782V18.6802H79.1055V16.5317H80.5801V14.1196ZM96.5957 16.5317V27.0005H93.8418V25.1157H93.7832C93.2363 26.5024 92.1914 27.1958 90.6484 27.1958C89.5026 27.1958 88.5879 26.8475 87.9043 26.1509C87.2207 25.4478 86.8789 24.4907 86.8789 23.2798V16.5317H89.7305V22.6841C89.7305 23.3807 89.8965 23.9113 90.2285 24.2759C90.5671 24.6405 91.0521 24.8228 91.6836 24.8228C92.3151 24.8228 92.8164 24.6144 93.1875 24.1978C93.5586 23.7811 93.7441 23.2244 93.7441 22.5278V16.5317H96.5957ZM104.564 16.3657C105.893 16.3657 106.938 16.8442 107.699 17.8013C108.467 18.7583 108.852 20.0799 108.852 21.7661C108.852 23.4458 108.474 24.7674 107.719 25.731C106.964 26.688 105.928 27.1665 104.613 27.1665C103.865 27.1665 103.204 26.9972 102.631 26.6587C102.064 26.3136 101.641 25.8416 101.361 25.2427H101.303V30.4185H98.4512V16.5317H101.264V18.3579H101.322C101.609 17.7329 102.032 17.2446 102.592 16.8931C103.158 16.5415 103.816 16.3657 104.564 16.3657ZM103.607 24.8716C104.317 24.8716 104.88 24.5916 105.297 24.0317C105.72 23.4718 105.932 22.7166 105.932 21.7661C105.932 20.8156 105.72 20.0604 105.297 19.5005C104.88 18.9341 104.317 18.6509 103.607 18.6509C102.911 18.6509 102.351 18.9373 101.928 19.5103C101.505 20.0767 101.293 20.8286 101.293 21.7661C101.293 22.7101 101.501 23.4653 101.918 24.0317C102.341 24.5916 102.904 24.8716 103.607 24.8716ZM119.682 24.5591V27.0005H110.57V12.9087H113.52V24.5591H119.682ZM125.229 25.106C125.86 25.106 126.394 24.9237 126.83 24.5591C127.273 24.188 127.494 23.7225 127.494 23.1626V22.4009L125.287 22.5376C124.753 22.5767 124.34 22.7101 124.047 22.938C123.76 23.1659 123.617 23.4653 123.617 23.8364C123.617 24.2271 123.764 24.5363 124.057 24.7642C124.35 24.992 124.74 25.106 125.229 25.106ZM124.291 27.1665C123.282 27.1665 122.445 26.8703 121.781 26.2778C121.117 25.6854 120.785 24.9237 120.785 23.9927C120.785 23.0422 121.137 22.2967 121.84 21.7563C122.543 21.216 123.549 20.9067 124.857 20.8286L127.494 20.6724V19.979C127.494 19.4972 127.335 19.1196 127.016 18.8462C126.703 18.5728 126.277 18.436 125.736 18.436C125.215 18.436 124.789 18.5532 124.457 18.7876C124.132 19.022 123.933 19.3377 123.861 19.7349H121.254C121.306 18.7062 121.745 17.8794 122.572 17.2544C123.399 16.6229 124.496 16.3071 125.863 16.3071C127.204 16.3071 128.279 16.6261 129.086 17.2642C129.893 17.9022 130.297 18.7485 130.297 19.8032V27.0005H127.543V25.3989H127.484C127.198 25.9458 126.762 26.3787 126.176 26.6978C125.59 27.0103 124.962 27.1665 124.291 27.1665ZM132.143 27.0005V16.5317H134.896V18.397H134.955C135.242 17.7329 135.658 17.2251 136.205 16.8735C136.758 16.5155 137.432 16.3364 138.227 16.3364C139.385 16.3364 140.281 16.6815 140.912 17.3716C141.544 18.0617 141.859 19.022 141.859 20.2524V27.0005H139.008V20.8481C139.008 20.158 138.845 19.6274 138.52 19.2563C138.194 18.8853 137.715 18.6997 137.084 18.6997C136.452 18.6997 135.945 18.9113 135.561 19.3345C135.183 19.7576 134.994 20.311 134.994 20.9946V27.0005H132.143ZM147.553 27.1665C146.244 27.1665 145.206 26.6815 144.438 25.7114C143.669 24.7414 143.285 23.4198 143.285 21.7466C143.285 20.0864 143.669 18.7746 144.438 17.811C145.212 16.8475 146.257 16.3657 147.572 16.3657C148.314 16.3657 148.965 16.5448 149.525 16.9028C150.092 17.2609 150.505 17.7362 150.766 18.3286H150.824V12.9087H153.676V27.0005H150.863V25.2036H150.814C150.554 25.7961 150.134 26.2713 149.555 26.6294C148.975 26.9875 148.308 27.1665 147.553 27.1665ZM148.52 18.6509C147.803 18.6509 147.237 18.9308 146.82 19.4907C146.41 20.0506 146.205 20.8091 146.205 21.7661C146.205 22.7297 146.41 23.4881 146.82 24.0415C147.237 24.5949 147.803 24.8716 148.52 24.8716C149.229 24.8716 149.792 24.5949 150.209 24.0415C150.632 23.4816 150.844 22.7231 150.844 21.7661C150.844 20.8156 150.632 20.0604 150.209 19.5005C149.792 18.9341 149.229 18.6509 148.52 18.6509ZM155.629 27.0005V16.5317H158.48V27.0005H155.629ZM158.139 14.9497C157.846 15.2362 157.484 15.3794 157.055 15.3794C156.625 15.3794 156.264 15.2362 155.971 14.9497C155.678 14.6632 155.531 14.3149 155.531 13.9048C155.531 13.4881 155.678 13.1398 155.971 12.8599C156.264 12.5734 156.625 12.4302 157.055 12.4302C157.484 12.4302 157.846 12.5734 158.139 12.8599C158.432 13.1398 158.578 13.4881 158.578 13.9048C158.578 14.3149 158.432 14.6632 158.139 14.9497ZM160.385 27.0005V16.5317H163.139V18.397H163.197C163.484 17.7329 163.9 17.2251 164.447 16.8735C165.001 16.5155 165.674 16.3364 166.469 16.3364C167.628 16.3364 168.523 16.6815 169.154 17.3716C169.786 18.0617 170.102 19.022 170.102 20.2524V27.0005H167.25V20.8481C167.25 20.158 167.087 19.6274 166.762 19.2563C166.436 18.8853 165.958 18.6997 165.326 18.6997C164.695 18.6997 164.187 18.9113 163.803 19.3345C163.425 19.7576 163.236 20.311 163.236 20.9946V27.0005H160.385ZM176.742 24.7739C177.458 24.7739 178.025 24.507 178.441 23.9731C178.865 23.4328 179.076 22.6906 179.076 21.7466C179.076 20.8026 178.865 20.0506 178.441 19.4907C178.018 18.9308 177.452 18.6509 176.742 18.6509C176.039 18.6509 175.479 18.9308 175.062 19.4907C174.652 20.0441 174.447 20.7961 174.447 21.7466C174.447 22.6971 174.652 23.4393 175.062 23.9731C175.473 24.507 176.033 24.7739 176.742 24.7739ZM176.693 30.9458C175.333 30.9458 174.213 30.6463 173.334 30.0474C172.462 29.4549 171.967 28.6867 171.85 27.7427H174.643C174.753 28.1073 175.001 28.4002 175.385 28.6216C175.775 28.8494 176.238 28.9634 176.771 28.9634C177.494 28.9634 178.057 28.7778 178.461 28.4067C178.865 28.0422 179.066 27.5506 179.066 26.9321V25.0962H179.008C178.76 25.6626 178.347 26.1183 177.768 26.4634C177.188 26.8019 176.524 26.9712 175.775 26.9712C174.486 26.9712 173.454 26.5024 172.68 25.5649C171.911 24.6274 171.527 23.3481 171.527 21.7271C171.527 20.0669 171.911 18.7583 172.68 17.8013C173.448 16.8442 174.496 16.3657 175.824 16.3657C176.566 16.3657 177.221 16.5448 177.787 16.9028C178.354 17.2609 178.777 17.7459 179.057 18.3579H179.105V16.5317H181.918V26.854C181.918 28.0975 181.439 29.0903 180.482 29.8325C179.532 30.5747 178.269 30.9458 176.693 30.9458Z" fill="#02073E"/>
<g clip-path="url(#clip0_1_25)">
<path d="M20.2107 0.539815C16.7919 -0.36784 13.166 -0.131665 9.89686 1.2116C6.62773 2.55487 3.89871 4.92993 2.13429 7.96732C0.369871 11.0047 -0.331025 14.5342 0.140625 18.0067C0.612276 21.4792 2.23003 24.7001 4.74225 27.1683L22.6286 9.46609C23.2974 8.80363 23.7782 7.97861 24.0229 7.07392C24.2675 6.16923 24.2673 5.21674 24.0223 4.31215C23.7773 3.40757 23.296 2.58275 22.627 1.92058C21.9579 1.2584 21.1246 0.782199 20.2107 0.539815Z" fill="url(#paint0_linear_1_25)"/>
<path d="M6.78875 36.4606C10.2096 37.3711 13.8386 37.1364 17.1107 35.793C20.3827 34.4495 23.1142 32.0727 24.8796 29.0328C26.6451 25.9928 27.3455 22.4602 26.8717 18.9852C26.398 15.5102 24.7767 12.2878 22.2603 9.81982L4.37394 27.5343C3.70514 28.1965 3.22416 29.0213 2.97933 29.9258C2.7345 30.8303 2.73443 31.7827 2.97913 32.6872C3.22383 33.5918 3.70469 34.4166 4.3734 35.079C5.0421 35.7413 5.87512 36.2178 6.78875 36.4606Z" fill="url(#paint1_linear_1_25)"/>
<path style="mix-blend-mode:multiply" d="M22.2603 9.81982L4.37394 27.5343C3.70514 28.1965 3.22416 29.0213 2.97933 29.9258C2.7345 30.8303 2.73443 31.7827 2.97913 32.6872C3.22383 33.5917 3.70469 34.4166 4.3734 35.079C5.0421 35.7413 5.87512 36.2178 6.78875 36.4606C8.70142 36.9655 10.6917 37.1173 12.6599 36.9086C4.81723 29.4398 22.2603 9.81982 22.2603 9.81982Z" fill="url(#paint2_linear_1_25)"/>
<g style="mix-blend-mode:multiply">
<path style="mix-blend-mode:multiply" d="M6.46017 36.3622C3.92136 28.5805 19.1697 12.9097 21.8604 10.2278L4.37395 27.5341C3.72563 28.176 3.25344 28.971 3.00202 29.8438C2.7506 30.7167 2.72826 31.6386 2.93711 32.5224C3.14597 33.4062 3.57912 34.2227 4.19559 34.8946C4.81207 35.5665 5.5915 36.0716 6.46017 36.3622Z" fill="url(#paint3_linear_1_25)"/>
<path style="mix-blend-mode:multiply" d="M22.2014 9.89033C22.22 9.8699 22.2396 9.85044 22.2603 9.83203L22.2014 9.89033Z" fill="url(#paint4_linear_1_25)"/>
</g>
<path style="mix-blend-mode:screen" d="M23.9404 7.36499L4.72113 27.1568L22.6292 9.46691C23.2273 8.87824 23.6766 8.15805 23.9404 7.36499Z" fill="url(#paint5_radial_1_25)"/>
</g>
<defs>
<linearGradient id="paint0_linear_1_25" x1="16.4102" y1="-16.6929" x2="10.5876" y2="20.6659" gradientUnits="userSpaceOnUse">
<stop stop-color="#0096D9"/>
<stop offset="1" stop-color="#00C198"/>
</linearGradient>
<linearGradient id="paint1_linear_1_25" x1="9.13537" y1="13.6186" x2="18.5045" y2="32.4253" gradientUnits="userSpaceOnUse">
<stop stop-color="#002DD9"/>
<stop offset="1" stop-color="#00B2AB"/>
</linearGradient>
<linearGradient id="paint2_linear_1_25" x1="23.8071" y1="-3.42383" x2="6.08252" y2="38.1718" gradientUnits="userSpaceOnUse">
<stop stop-color="#3482C0"/>
<stop offset="0.45" stop-color="#96BEDE"/>
<stop offset="0.83" stop-color="#E1EDF6"/>
<stop offset="1" stop-color="white"/>
</linearGradient>
<linearGradient id="paint3_linear_1_25" x1="1361.37" y1="132.276" x2="-132.261" y2="2238.51" gradientUnits="userSpaceOnUse">
<stop stop-color="#3482C0"/>
<stop offset="0.45" stop-color="#96BEDE"/>
<stop offset="0.83" stop-color="#E1EDF6"/>
<stop offset="1" stop-color="white"/>
</linearGradient>
<linearGradient id="paint4_linear_1_25" x1="25.6732" y1="3.26857" x2="10.5951" y2="32.713" gradientUnits="userSpaceOnUse">
<stop stop-color="#569FA1"/>
<stop offset="0.36" stop-color="#97C4C5"/>
<stop offset="0.8" stop-color="#E2EEEF"/>
<stop offset="1" stop-color="white"/>
</linearGradient>
<radialGradient id="paint5_radial_1_25" cx="0" cy="0" r="1" gradientUnits="userSpaceOnUse" gradientTransform="translate(21.5938 32.3825) scale(27.8184 27.5367)">
<stop stop-color="#FFFF00"/>
<stop offset="1"/>
</radialGradient>
<clipPath id="clip0_1_25">
<rect width="27" height="37" fill="white" transform="translate(0 0.000488281)"/>
</clipPath>
</defs>
</svg>
