<svg width="110" height="110" viewBox="0 0 110 110" fill="none" xmlns="http://www.w3.org/2000/svg">
<g clip-path="url(#clip0_1_75)">
<path d="M75 0H35C15.67 0 0 15.67 0 35V75C0 94.33 15.67 110 35 110H75C94.33 110 110 94.33 110 75V35C110 15.67 94.33 0 75 0Z" fill="url(#paint0_linear_1_75)"/>
<g clip-path="url(#clip1_1_75)">
<path d="M67.6875 38.4375V36H43.3125V38.4375H36V46.9688C36 53.8781 41.2547 59.5804 47.9771 60.2964C49.4269 62.508 51.1529 64.0561 53.0625 64.7802V67.6875C53.0625 69.0336 51.9712 70.125 50.625 70.125C47.9327 70.125 45.75 72.3075 45.75 75H65.25C65.25 72.3075 63.0673 70.125 60.375 70.125C59.0288 70.125 57.9375 69.0336 57.9375 67.6875V64.7959C59.8512 64.0784 61.572 62.5094 63.0229 60.2964C69.7453 59.5804 75 53.8781 75 46.9688V38.4375H67.6875ZM40.875 46.9688V43.3125H43.3701C43.5563 47.4246 44.2153 51.1714 45.2391 54.3666C42.6482 52.9006 40.875 50.1516 40.875 46.9688H40.875ZM45.75 40.875V38.4375H48.1875V40.875C48.1875 52.0599 51.9104 61.2709 56.7188 62.6231C56.3187 62.7356 55.9137 62.8125 55.5 62.8125C50.1151 62.8125 45.75 52.9906 45.75 40.875V40.875ZM70.125 46.9688C70.125 50.1516 68.3518 52.9006 65.7609 54.3666C66.7847 51.1714 67.4436 47.4246 67.6299 43.3125H70.125V46.9688H70.125Z" fill="white"/>
</g>
</g>
<defs>
<linearGradient id="paint0_linear_1_75" x1="98.5" y1="99.5" x2="22.5" y2="1.72786e-06" gradientUnits="userSpaceOnUse">
<stop stop-color="#FF9066"/>
<stop offset="1" stop-color="#FF9066" stop-opacity="0.5"/>
</linearGradient>
<clipPath id="clip0_1_75">
<rect width="110" height="110" fill="white"/>
</clipPath>
<clipPath id="clip1_1_75">
<rect width="39" height="39" fill="white" transform="translate(36 36)"/>
</clipPath>
</defs>
</svg>
